<svg width="143" height="46" viewBox="0 0 143 46" fill="none" xmlns="http://www.w3.org/2000/svg">
<path d="M138.923 39.7673C138.955 39.8102 138.978 39.8598 138.99 39.9125C139.002 39.9653 139.003 40.0201 138.993 40.0733C138.983 40.1264 138.962 40.1768 138.931 40.2209C138.9 40.2651 138.861 40.302 138.815 40.3293C138.726 40.3908 138.619 40.4157 138.513 40.3989C138.407 40.3821 138.312 40.325 138.246 40.239C138.246 40.239 135.911 36.8165 134.204 36.1441C133.743 35.9434 133.517 36.1441 132.948 36.6359C132.075 37.4388 130.741 38.6432 127.219 38.3822C127.167 38.381 127.116 38.369 127.069 38.3469C127.021 38.3247 126.979 38.293 126.944 38.2535C126.909 38.2141 126.882 38.1678 126.866 38.1174C126.849 38.0671 126.842 38.0137 126.846 37.9607C126.854 37.8471 126.904 37.7409 126.986 37.6642C127.068 37.5876 127.176 37.5463 127.288 37.5492C130.456 37.78 131.575 36.7664 132.409 36.0036C132.997 35.4717 133.547 34.9999 134.508 35.3612C136.47 36.1441 138.815 39.6167 138.923 39.7673ZM114.289 24.1706C113.442 23.9852 112.571 23.9378 111.709 24.0301C111.474 24.0426 111.238 24.0426 111.003 24.0301C110.895 24.0296 110.79 24.0706 110.71 24.1449C110.631 24.2192 110.581 24.3215 110.571 24.4315C110.563 24.5418 110.597 24.6509 110.667 24.7354C110.737 24.8199 110.836 24.8729 110.944 24.8832C111.218 24.9007 111.493 24.9007 111.768 24.8832C111.777 24.8884 111.787 24.8912 111.797 24.8912C111.808 24.8912 111.818 24.8884 111.827 24.8832C111.835 25.11 111.896 25.3316 112.003 25.5302C112.11 25.7289 112.262 25.8991 112.445 26.0273C112.976 26.3641 113.575 26.5734 114.197 26.6395C114.819 26.7055 115.448 26.6266 116.035 26.4087C116.284 26.348 116.515 26.2243 116.705 26.0489C116.895 25.8736 117.039 25.6522 117.124 25.4051C117.136 25.3524 117.137 25.2978 117.128 25.2446C117.119 25.1913 117.1 25.1404 117.072 25.0947C117.043 25.0491 117.007 25.0096 116.964 24.9784C116.92 24.9473 116.872 24.9251 116.82 24.9133C116.769 24.9014 116.715 24.9 116.663 24.9093C116.611 24.9185 116.561 24.9381 116.517 24.967C116.472 24.9959 116.434 25.0335 116.403 25.0777C116.373 25.1218 116.351 25.1717 116.339 25.2244C116.277 25.3363 116.193 25.4334 116.091 25.5096C115.99 25.5857 115.874 25.639 115.751 25.666C115.294 25.8355 114.806 25.9018 114.322 25.8602C113.838 25.8186 113.368 25.6702 112.945 25.4251C112.856 25.3644 112.78 25.2844 112.725 25.1908C112.669 25.0972 112.633 24.9922 112.621 24.8832C113.112 24.9076 113.601 24.9679 114.083 25.0638C114.323 25.1093 114.565 25.1395 114.809 25.1542C115.075 25.1286 115.338 25.0747 115.594 24.9936C116.194 24.8274 116.817 24.7596 117.438 24.7928C117.533 24.8419 117.643 24.8504 117.744 24.8165C117.846 24.7827 117.929 24.7092 117.978 24.6122C118.006 24.5651 118.024 24.5122 118.03 24.4574C118.036 24.4025 118.031 24.3469 118.014 24.2944C117.997 24.2419 117.97 24.1938 117.933 24.1534C117.896 24.1129 117.851 24.0811 117.801 24.0602C117.02 23.8755 116.204 23.9207 115.447 24.1906C115.162 24.2609 114.878 24.3011 114.789 24.3312C114.605 24.3123 114.421 24.2821 114.24 24.2408M114.24 23.0063C113.612 22.7765 112.94 22.7009 112.278 22.7855C112.175 22.8029 112.082 22.8608 112.019 22.947C111.957 23.0333 111.93 23.141 111.944 23.2472C111.954 23.302 111.974 23.3544 112.003 23.4012C112.032 23.4481 112.071 23.4886 112.115 23.5203C112.16 23.552 112.21 23.5744 112.264 23.5861C112.317 23.5978 112.372 23.5986 112.425 23.5884C112.974 23.5535 113.523 23.6285 114.044 23.8092C114.096 23.8276 114.151 23.8344 114.206 23.8294C114.261 23.8244 114.314 23.8076 114.362 23.7802C114.41 23.7527 114.452 23.7152 114.485 23.6701C114.518 23.6249 114.542 23.5732 114.554 23.5182C114.581 23.4118 114.567 23.2987 114.514 23.203C114.46 23.1074 114.373 23.0368 114.269 23.0063M115.663 23.6989C116.104 23.5592 116.564 23.4914 117.026 23.4981C117.132 23.4982 117.234 23.4566 117.311 23.3819C117.387 23.3071 117.433 23.205 117.438 23.0967C117.441 23.0418 117.433 22.9869 117.414 22.9353C117.396 22.8837 117.368 22.8365 117.331 22.7962C117.294 22.756 117.25 22.7237 117.201 22.7012C117.152 22.6786 117.099 22.6664 117.046 22.6651C116.481 22.6639 115.919 22.7484 115.378 22.916C115.28 22.9603 115.202 23.0404 115.158 23.1406C115.115 23.2407 115.109 23.3539 115.143 23.458C115.16 23.5097 115.187 23.5572 115.223 23.5976C115.259 23.6381 115.303 23.6706 115.352 23.6931C115.4 23.7157 115.453 23.7278 115.507 23.7288C115.56 23.7298 115.613 23.7196 115.663 23.6989ZM121.313 23.0465C121.947 21.1431 121.859 19.0658 121.068 17.2253C121.049 17.1754 121.02 17.13 120.983 17.0917C120.946 17.0534 120.902 17.0231 120.854 17.0025C120.805 16.9819 120.753 16.9715 120.701 16.9718C120.648 16.9722 120.596 16.9833 120.548 17.0045C120.449 17.0527 120.372 17.1375 120.332 17.2419C120.291 17.3463 120.292 17.4624 120.332 17.5666C121.017 19.2122 121.093 21.0562 120.548 22.7554C119.233 26.1377 118.184 28.2253 117.369 28.8676C116.388 29.6806 113.043 30.4133 110.002 28.9178C109.943 28.8677 109.855 28.8275 109.747 28.7573C109.411 28.5543 109.047 28.4053 108.668 28.3156C108.616 28.3024 108.562 28.2999 108.51 28.3085C108.457 28.3171 108.407 28.3366 108.362 28.3657C108.317 28.3948 108.278 28.4329 108.248 28.4778C108.218 28.5227 108.197 28.5734 108.187 28.6268C108.168 28.7354 108.188 28.8474 108.244 28.9417C108.3 29.036 108.388 29.106 108.491 29.1386C108.795 29.2029 109.085 29.3255 109.345 29.4999L109.698 29.6806C113.239 31.4269 116.879 30.4133 117.948 29.52C119.018 28.6268 119.959 26.6998 121.362 23.0465M118.517 17.145C118.708 17.1372 118.888 17.0527 119.019 16.9099C119.149 16.7672 119.219 16.5776 119.214 16.3823C119.217 16.222 119.172 16.0645 119.086 15.9306C119.42 16.01 119.748 16.114 120.067 16.2418C120.112 16.2687 120.162 16.2855 120.214 16.2909C120.266 16.2963 120.318 16.2902 120.368 16.273C120.417 16.2559 120.462 16.2281 120.5 16.1915C120.538 16.155 120.568 16.1105 120.587 16.0611C120.614 16.0136 120.63 15.9609 120.636 15.9065C120.641 15.852 120.635 15.797 120.619 15.745C120.602 15.6929 120.575 15.6451 120.539 15.6045C120.503 15.5638 120.46 15.5313 120.411 15.5091C119.571 15.0846 118.611 14.9814 117.703 15.218C117.431 15.3264 117.183 15.4886 116.973 15.6952C116.762 15.9019 116.594 16.149 116.477 16.4224C116.436 16.5266 116.436 16.6427 116.476 16.7471C116.516 16.8515 116.594 16.9363 116.693 16.9845C116.741 17.0059 116.794 17.0171 116.847 17.0176C116.901 17.0181 116.953 17.0077 117.003 16.9872C117.052 16.9667 117.097 16.9363 117.134 16.898C117.172 16.8596 117.202 16.8139 117.222 16.7637C117.338 16.4569 117.562 16.206 117.85 16.0611C117.81 16.1631 117.79 16.2723 117.791 16.3823C117.786 16.5743 117.853 16.761 117.98 16.9033C118.106 17.0455 118.281 17.1321 118.468 17.145M131.114 35.7226C131.512 35.4109 131.779 34.9547 131.859 34.4479C131.859 34.2472 131.859 34.0866 131.859 33.926C131.893 33.5733 131.817 33.2187 131.64 32.9136C131.464 32.6086 131.197 32.3691 130.878 32.2299C130.662 32.0894 130.545 32.0291 130.545 31.8485C130.563 31.6842 130.61 31.5246 130.682 31.3768C130.767 31.125 130.81 30.8603 130.81 30.5939C130.817 30.2993 130.757 30.0069 130.633 29.7408C130.238 29.044 129.642 28.4898 128.926 28.1551C129.514 27.2612 129.853 26.2203 129.907 25.1441C129.916 24.977 129.916 24.8094 129.907 24.6423C129.794 23.3804 129.198 22.2153 128.249 21.4005C127.768 20.9288 127.523 20.6879 127.523 20.166C127.523 19.875 127.523 19.5137 127.611 19.1624C127.611 18.5803 127.739 17.9279 127.739 17.2655C127.809 16.6166 127.715 15.9603 127.466 15.3593C127.217 14.7583 126.821 14.2328 126.316 13.833C126.602 13.2491 126.759 12.6086 126.778 11.9562C126.789 11.5859 126.715 11.2181 126.562 10.8823C126.386 10.5417 126.138 10.2458 125.836 10.0165C125.534 9.78722 125.185 9.63035 124.815 9.55747C124.659 9.12428 124.586 8.66419 124.6 8.20254C124.6 7.95162 124.6 7.69069 124.511 7.39963C124.429 7.06586 124.275 6.75534 124.059 6.49121C123.843 6.22708 123.572 6.01612 123.265 5.87407C122.896 5.69548 122.485 5.62599 122.078 5.67336C121.863 3.94708 121.294 3.66605 120.44 3.56569C119.859 3.52174 119.315 3.26098 118.91 2.83301C118.714 2.58501 118.463 2.3883 118.178 2.25915C117.893 2.13 117.583 2.07213 117.271 2.09032C116.9 2.13842 116.555 2.31141 116.29 2.5821C115.91 2.22929 115.42 2.02344 114.907 2C114.624 2.01166 114.347 2.08586 114.095 2.21753C113.842 2.3492 113.621 2.5352 113.445 2.76275C113.378 2.8442 113.341 2.9473 113.341 3.05382C113.341 3.16034 113.378 3.26344 113.445 3.34488C113.532 3.41762 113.643 3.45303 113.755 3.44366C113.866 3.4343 113.97 3.38087 114.044 3.29468C114.135 3.16067 114.255 3.04954 114.394 2.96959C114.534 2.88964 114.689 2.84296 114.848 2.83301C115.285 2.90324 115.686 3.12252 115.986 3.45527C116.025 3.50622 116.076 3.54537 116.135 3.56838C116.194 3.5914 116.258 3.59739 116.32 3.58575C116.387 3.58717 116.453 3.56907 116.51 3.53353C116.568 3.49798 116.614 3.44648 116.644 3.38504C116.714 3.26343 116.81 3.15852 116.923 3.07722C117.036 2.99592 117.165 2.94008 117.301 2.91332C117.585 2.91332 117.889 3.05383 118.282 3.41515C118.807 3.96644 119.498 4.32013 120.244 4.4188C120.597 4.4188 120.764 4.50911 120.882 4.65966C121.148 5.15415 121.283 5.71113 121.274 6.27552C121.275 6.34093 121.294 6.40472 121.329 6.45969C121.363 6.51466 121.412 6.55865 121.47 6.58668C121.529 6.62515 121.597 6.64558 121.666 6.64558C121.736 6.64558 121.804 6.62515 121.863 6.58668C122.014 6.50577 122.182 6.46349 122.353 6.46349C122.524 6.46349 122.692 6.50577 122.844 6.58668C123.036 6.66655 123.207 6.7904 123.345 6.94874C123.483 7.10709 123.583 7.29567 123.638 7.49997C123.638 7.75088 123.697 7.97169 123.717 8.2226C123.738 8.81226 123.882 9.39054 124.139 9.91877C124.163 9.97811 124.202 10.0299 124.252 10.0687C124.302 10.1075 124.361 10.1319 124.423 10.1396C124.706 10.1759 124.977 10.278 125.215 10.438C125.453 10.5981 125.652 10.8119 125.797 11.0629C125.917 11.4925 125.943 11.9442 125.871 12.3851C125.8 12.826 125.634 13.2452 125.384 13.6122C125.362 13.6662 125.351 13.7242 125.351 13.7828C125.351 13.8414 125.362 13.8994 125.384 13.9535C125.397 14.0093 125.424 14.0608 125.461 14.103C125.499 14.1452 125.547 14.1767 125.6 14.1943C127.18 14.937 126.954 17.1049 126.778 18.8713C126.778 19.2728 126.699 19.6742 126.67 19.9954C126.679 20.3675 126.773 20.7322 126.943 21.0613C127.113 21.3903 127.356 21.6747 127.651 21.8923C128.06 22.228 128.398 22.6462 128.642 23.121C128.887 23.5958 129.034 24.1171 129.073 24.6523C129.096 25.8565 128.715 27.0322 127.994 27.9844C127.954 28.0381 127.926 28.0998 127.91 28.1655C127.895 28.2312 127.894 28.2995 127.906 28.3658C127.956 28.4878 128.051 28.585 128.171 28.6368C128.883 28.8854 129.491 29.3736 129.897 30.0218C129.971 30.1783 130.009 30.3499 130.009 30.5237C130.009 30.6974 129.971 30.869 129.897 31.0255C129.456 32.1897 129.897 32.5711 130.466 32.8822C131.035 33.1934 131.143 33.2837 131.006 34.2773C130.991 34.4244 130.945 34.5664 130.87 34.693C130.795 34.8197 130.694 34.9279 130.574 35.01C129.436 35.8831 126.542 35.7025 125.522 35.5519C125.456 35.5476 125.389 35.5589 125.328 35.585C125.267 35.6111 125.212 35.6513 125.169 35.7025C125.123 35.7488 125.091 35.8069 125.076 35.8706C125.06 35.9343 125.062 36.0011 125.08 36.0638C125.139 36.2337 125.151 36.4166 125.117 36.5931C125.082 36.7697 125.002 36.9336 124.884 37.0675C124.624 37.2766 124.322 37.4231 123.999 37.4961C123.677 37.5691 123.342 37.5666 123.02 37.489C122.95 37.4742 122.878 37.4775 122.809 37.4985C122.741 37.5196 122.678 37.5577 122.628 37.6094C122.583 37.6605 122.552 37.7221 122.536 37.7887C122.521 37.8553 122.522 37.9247 122.54 37.9908C122.697 38.6833 122.54 39.155 122.196 39.3758C122 39.4848 121.781 39.5418 121.559 39.5418C121.336 39.5418 121.116 39.4848 120.921 39.3758C120.802 39.243 120.721 39.0801 120.685 38.9041C120.66 38.7415 120.599 38.5867 120.507 38.4513C120.416 38.3158 120.295 38.2031 120.156 38.1213C120.015 38.0574 119.863 38.0243 119.709 38.0243C119.555 38.0243 119.403 38.0574 119.263 38.1213C118.645 38.3722 118.38 38.302 118.282 38.2317C118.202 38.1588 118.139 38.0689 118.096 37.9683C118.054 37.8678 118.034 37.759 118.037 37.6496C118.031 37.5659 117.998 37.4867 117.943 37.4247C117.887 37.3628 117.813 37.3217 117.732 37.3083C117.664 37.3083 116.957 37.1076 116.85 35.8932C116.9 34.8337 117.359 33.8378 118.125 33.1231L118.321 32.8722L118.38 32.7819C118.721 32.4468 118.941 32.0039 119.005 31.5249C119.069 31.0458 118.973 30.5587 118.733 30.1423C118.672 30.051 118.577 29.9882 118.471 29.9676C118.364 29.9469 118.254 29.97 118.164 30.0319C118.104 30.0623 118.054 30.1097 118.019 30.1683C117.984 30.2269 117.967 30.2945 117.968 30.3631C117.963 30.4428 117.988 30.5216 118.037 30.5839C118.155 30.7734 118.223 30.9915 118.233 31.2162C118.18 31.5943 118.012 31.9457 117.752 32.2198L117.664 32.3302L117.507 32.5109C116.665 33.3494 116.14 34.4658 116.025 35.6623C116.025 35.7527 116.025 35.8229 116.025 35.9132C116.019 36.3423 116.132 36.7644 116.353 37.1291C116.574 37.4939 116.893 37.7861 117.271 37.9707C117.296 38.1601 117.359 38.3421 117.457 38.5047C117.555 38.6673 117.686 38.8068 117.84 38.9142C118.112 39.0349 118.406 39.0912 118.702 39.0791C118.997 39.0669 119.286 38.9865 119.547 38.8439C119.625 38.8319 119.705 38.8319 119.783 38.8439C119.828 38.9384 119.867 39.0356 119.901 39.135C119.976 39.4355 120.125 39.7116 120.332 39.9379C120.659 40.173 121.043 40.3099 121.442 40.3329C121.841 40.356 122.238 40.2643 122.589 40.0684C122.849 39.9116 123.062 39.6843 123.204 39.4116C123.346 39.1388 123.411 38.8312 123.393 38.5227C123.402 38.4629 123.402 38.4019 123.393 38.3421C123.769 38.3758 124.148 38.33 124.505 38.2074C124.863 38.0848 125.193 37.8881 125.473 37.6295C125.774 37.3129 125.94 36.8869 125.934 36.4452C127.072 36.5556 129.76 36.6861 131.074 35.6623M110.355 15.0173C109.816 14.9546 109.271 15.0496 108.784 15.2913C108.296 15.5329 107.885 15.9112 107.598 16.3823C107.554 16.4838 107.55 16.5989 107.586 16.7036C107.623 16.8083 107.697 16.8945 107.795 16.9443C107.843 16.9695 107.897 16.9843 107.951 16.9878C108.005 16.9913 108.06 16.9834 108.111 16.9646C108.163 16.9459 108.21 16.9166 108.25 16.8786C108.29 16.8406 108.322 16.7946 108.344 16.7436C108.509 16.4261 108.781 16.1802 109.109 16.0511C109.099 16.1243 109.099 16.1987 109.109 16.2719C109.104 16.4725 109.176 16.6672 109.31 16.8137C109.444 16.9603 109.629 17.0469 109.825 17.0547C110.022 17.0469 110.208 16.9606 110.344 16.8144C110.48 16.6681 110.554 16.4735 110.551 16.2719C110.546 16.125 110.509 15.9811 110.443 15.8503C110.746 15.8588 111.04 15.9586 111.288 16.1371C111.536 16.3157 111.727 16.565 111.836 16.854C111.876 16.9583 111.952 17.0438 112.05 17.0939C112.148 17.1439 112.261 17.155 112.366 17.125C112.468 17.0843 112.552 17.0063 112.601 16.9062C112.65 16.806 112.66 16.6909 112.631 16.583C112.596 16.5072 112.557 16.4334 112.513 16.3622C112.763 15.9643 112.871 15.4906 112.819 15.0208C112.767 14.551 112.559 14.1139 112.229 13.7828C111.248 12.6487 109.345 13.1204 107.991 13.4516C107.939 13.4655 107.89 13.4899 107.848 13.5234C107.805 13.5568 107.77 13.5986 107.743 13.6462C107.717 13.6939 107.7 13.7466 107.693 13.801C107.687 13.8555 107.692 13.9107 107.706 13.9635C107.717 14.0171 107.738 14.068 107.768 14.1133C107.798 14.1586 107.836 14.1974 107.881 14.2273C107.926 14.2572 107.976 14.2776 108.028 14.2875C108.081 14.2973 108.135 14.2964 108.187 14.2846C109.345 13.9635 110.944 13.5821 111.64 14.365C111.804 14.5216 111.923 14.722 111.982 14.9437C112.04 15.1653 112.038 15.3994 111.974 15.6195C111.508 15.269 110.952 15.0666 110.375 15.0374M119.204 39.8476C119.152 39.8577 119.103 39.8791 119.06 39.9102C119.017 39.9412 118.98 39.9814 118.953 40.0279C118.927 40.0744 118.91 40.1262 118.904 40.1799C118.898 40.2336 118.903 40.2879 118.92 40.3393C119.243 41.7444 119.204 42.3467 118.743 42.5273C117.84 42.979 115.221 43.2198 112.062 43.1797C110.174 43.2392 108.287 43.0195 106.46 42.5273C107.617 39.1774 108.425 35.7125 108.874 32.1897L108.982 31.2965C109.81 31.6081 110.659 31.8596 111.523 32.0492C111.585 32.3595 111.615 32.6758 111.611 32.9927C111.581 33.96 111.499 34.9249 111.366 35.8831C111.162 37.4778 111.044 39.0827 111.012 40.6906C111.012 41.072 111.012 41.4333 111.061 41.7946C111.06 41.8495 111.07 41.9041 111.09 41.9549C111.111 42.0056 111.141 42.0514 111.18 42.0893C111.219 42.1271 111.265 42.1562 111.316 42.1746C111.366 42.193 111.42 42.2003 111.473 42.1961C111.581 42.1909 111.682 42.1428 111.756 42.0621C111.829 41.9815 111.869 41.8747 111.866 41.7645C111.805 39.8352 111.91 37.9041 112.18 35.9935C112.396 34.0465 112.572 32.5209 112.18 31.5374C112.157 31.4688 112.117 31.4076 112.063 31.36C112.01 31.3125 111.945 31.2802 111.876 31.2664C110.811 31.0352 109.765 30.7232 108.746 30.333C108.69 30.2985 108.626 30.2803 108.56 30.2803C108.494 30.2803 108.43 30.2985 108.373 30.333C108.321 30.3672 108.276 30.4128 108.242 30.4665C108.208 30.5202 108.186 30.5808 108.177 30.6441C108.177 30.6441 108.04 32.0593 108.04 32.0793C107.564 35.5999 106.746 39.0629 105.597 42.4169C105.584 42.4763 105.584 42.5381 105.597 42.5975C105.596 42.6888 105.616 42.779 105.655 42.8609C105.694 42.9429 105.752 43.0142 105.823 43.0693C106.627 43.812 110.787 43.9625 112.052 43.9926C113.318 44.0227 117.546 43.9926 119.106 43.27C120.332 42.6678 119.91 41.082 119.695 40.1185C119.681 40.0655 119.657 40.0157 119.624 39.9722C119.592 39.9287 119.551 39.8923 119.504 39.8652C119.458 39.8381 119.406 39.8208 119.353 39.8143C119.3 39.8078 119.246 39.8123 119.194 39.8275M117.458 31.156C117.417 31.0569 117.339 30.9783 117.242 30.937C117.145 30.8957 117.036 30.8951 116.938 30.9352C115.805 31.3315 114.612 31.5151 113.416 31.4771C113.309 31.4771 113.207 31.5205 113.131 31.5977C113.056 31.6748 113.014 31.7795 113.014 31.8886C113.014 31.9978 113.056 32.1024 113.131 32.1796C113.207 32.2568 113.309 32.3001 113.416 32.3001C114.715 32.3463 116.012 32.149 117.242 31.718C117.341 31.6699 117.418 31.585 117.458 31.4806C117.499 31.3762 117.498 31.2602 117.458 31.156ZM116.8 13.4115C116.44 13.5977 116.129 13.87 115.893 14.2055C115.657 14.5409 115.504 14.9296 115.447 15.3385C115.431 16.5977 115.717 17.8417 116.281 18.9616C116.624 19.7947 116.977 20.6678 116.761 20.9689C116.545 21.27 116.281 21.4005 115.604 21.26C114.997 21.0953 114.354 21.1448 113.779 21.4005C113.568 21.486 113.333 21.486 113.122 21.4005C113.019 21.3269 112.949 21.2153 112.925 21.0894C112.975 21.0479 113.014 20.9957 113.041 20.9367C113.068 20.8777 113.082 20.8133 113.082 20.7481C113.082 20.6363 113.039 20.5291 112.962 20.4501C112.884 20.371 112.78 20.3266 112.67 20.3266C112.616 20.323 112.562 20.333 112.512 20.3557C112.463 20.3785 112.419 20.4133 112.386 20.4571C112.305 20.5215 112.239 20.6036 112.193 20.6974C112.148 20.7911 112.123 20.8942 112.121 20.999C112.115 21.2009 112.156 21.4013 112.239 21.5843C112.323 21.7673 112.447 21.9277 112.602 22.0529C112.816 22.1991 113.064 22.2845 113.321 22.3004C113.577 22.3162 113.834 22.262 114.063 22.1432C114.491 21.9487 114.973 21.9237 115.417 22.073C115.772 22.209 116.162 22.2143 116.52 22.0879C116.878 21.9615 117.182 21.7113 117.379 21.3804C117.504 21.1725 117.565 20.9315 117.556 20.6879C117.476 19.963 117.277 19.2571 116.967 18.6003C116.525 17.6971 116.256 16.7162 116.173 15.7098V15.3987C116.218 15.1182 116.324 14.8516 116.484 14.6188C116.644 14.386 116.852 14.1929 117.095 14.0538C118.252 13.5018 120.038 14.3449 120.038 14.3449C120.111 14.3849 120.195 14.4006 120.278 14.3898C120.36 14.379 120.438 14.3423 120.499 14.2846C120.561 14.2301 120.604 14.1573 120.623 14.0764C120.643 13.9955 120.637 13.9104 120.607 13.833C120.215 12.7839 119.977 11.6814 119.901 10.5611C119.896 10.4528 119.85 10.3507 119.773 10.2759C119.696 10.2012 119.594 10.1595 119.488 10.1597C119.383 10.1695 119.284 10.219 119.212 10.2987C119.139 10.3783 119.098 10.4825 119.096 10.5912C119.151 11.5107 119.313 12.4203 119.577 13.3011C118.675 12.9396 117.673 12.9396 116.771 13.3011M107.52 10.8622C108.026 10.8924 108.532 10.7882 108.988 10.5596C109.443 10.3309 109.833 9.98576 110.12 9.55747C110.618 10.1011 111.282 10.4551 112.003 10.5611C112.712 10.5119 113.374 10.1805 113.848 9.63775C114.39 10.1392 115.081 10.4397 115.81 10.4909C116.16 10.4754 116.502 10.3767 116.809 10.2025C117.115 10.0283 117.378 9.78337 117.576 9.48721C117.816 9.7012 118.079 9.88639 118.36 10.0392C118.406 10.0676 118.456 10.0863 118.509 10.0941C118.562 10.1018 118.615 10.0986 118.667 10.0845C118.718 10.0704 118.766 10.0458 118.808 10.0121C118.85 9.97846 118.884 9.93646 118.91 9.88866C118.963 9.79416 118.977 9.68186 118.95 9.57646C118.922 9.47106 118.855 9.3812 118.763 9.32662C118.417 9.17211 118.126 8.91291 117.929 8.58393C117.891 8.51944 117.838 8.466 117.775 8.42888C117.711 8.39177 117.639 8.37225 117.566 8.37225C117.492 8.37225 117.42 8.39177 117.357 8.42888C117.293 8.466 117.24 8.51944 117.203 8.58393C116.791 9.32663 116.33 9.65784 115.81 9.65784C115.151 9.57531 114.539 9.26759 114.073 8.78464C114.031 8.7411 113.98 8.70704 113.925 8.68457C113.869 8.66211 113.809 8.65177 113.749 8.65419C113.689 8.65948 113.63 8.67843 113.578 8.70966C113.525 8.74089 113.48 8.78364 113.445 8.83484C113.273 9.07422 113.056 9.27636 112.806 9.42965C112.557 9.58294 112.281 9.68435 111.993 9.72807C111.35 9.58072 110.778 9.20794 110.375 8.67425C110.337 8.62361 110.288 8.58273 110.231 8.55486C110.175 8.52699 110.113 8.51288 110.051 8.51367C109.985 8.51442 109.921 8.53122 109.863 8.56264C109.805 8.59407 109.755 8.63919 109.717 8.69431C109.462 9.09577 108.736 10.0392 107.903 10.0894C107.409 7.80215 106.753 5.5547 105.94 3.36495H106.156C106.459 3.34549 106.762 3.40315 107.037 3.53276C107.313 3.66238 107.553 3.85992 107.736 4.10767C107.779 4.17104 107.839 4.22125 107.908 4.25303C107.977 4.28482 108.053 4.297 108.128 4.28832C108.201 4.26758 108.269 4.23078 108.326 4.1805C108.384 4.13023 108.43 4.06769 108.462 3.99725C108.589 3.54561 109.619 2.9936 110.689 3.05382C111.136 3.10093 111.565 3.26264 111.935 3.524C112.306 3.78537 112.606 4.13795 112.808 4.54924C112.858 4.64695 112.944 4.72062 113.046 4.7544C113.149 4.78818 113.261 4.7794 113.357 4.72992C113.452 4.67317 113.522 4.58045 113.552 4.47163C113.581 4.36281 113.567 4.24655 113.514 4.14779C113.244 3.60995 112.845 3.15102 112.354 2.81399C111.863 2.47697 111.297 2.27288 110.708 2.2208C109.718 2.18281 108.753 2.54311 108.02 3.22445C107.751 2.98923 107.439 2.81124 107.103 2.70094C106.766 2.59065 106.411 2.55024 106.058 2.5821C105.806 2.61098 105.557 2.66133 105.313 2.73264C105.268 2.74217 105.225 2.75914 105.185 2.78284C105.131 2.81902 105.087 2.86816 105.056 2.92591C105.026 2.98366 105.009 3.04825 105.009 3.11403C104.997 3.17369 104.997 3.23503 105.009 3.29468C105.009 3.29468 105.009 3.29468 105.058 3.29468C105.968 5.64616 106.69 8.06962 107.216 10.541C107.238 10.6201 107.281 10.6917 107.34 10.7481C107.398 10.8046 107.471 10.844 107.549 10.8622M116.261 41.7746C116.282 41.8227 116.312 41.8661 116.35 41.9023C116.388 41.9385 116.432 41.9667 116.48 41.9853C116.528 42.0039 116.58 42.0127 116.632 42.011C116.683 42.0092 116.734 41.9971 116.781 41.9753C116.878 41.9311 116.955 41.85 116.996 41.7489C117.036 41.6478 117.036 41.5347 116.997 41.4333C116.817 40.7429 116.734 40.0299 116.751 39.3156V39.1149C116.75 39.0608 116.738 39.0076 116.717 38.9582C116.696 38.9087 116.665 38.8641 116.627 38.8268C116.588 38.7895 116.543 38.7603 116.494 38.7409C116.445 38.7214 116.392 38.7121 116.339 38.7134C116.232 38.716 116.13 38.7616 116.054 38.8404C115.979 38.9192 115.937 39.0249 115.937 39.135V39.3156C115.889 40.1943 115.995 41.0748 116.251 41.9151" fill="#F0E5E9"/>
<path d="M58.6281 13.5518C58.4651 13.5504 58.3069 13.4947 58.1776 13.3932C58.0483 13.2917 57.9548 13.1499 57.9114 12.9892L57.2113 11.046H52.2107L51.5107 12.9892C51.4759 13.1515 51.387 13.2964 51.2593 13.399C51.1316 13.5016 50.9729 13.5556 50.8105 13.5518C50.7211 13.5612 50.6308 13.5516 50.5452 13.5235C50.4596 13.4954 50.3806 13.4495 50.3132 13.3886C50.2459 13.3278 50.1917 13.2532 50.1539 13.1698C50.1161 13.0864 50.0956 12.9959 50.0938 12.904C50.1182 12.6993 50.1687 12.4987 50.2438 12.3074V12.1881L53.5776 2.9493C53.8109 2.38679 54.1443 2.07995 54.6277 2.07995C54.8662 2.08713 55.0951 2.17715 55.2769 2.33516C55.4587 2.49317 55.5824 2.70977 55.6278 2.9493L58.9615 12.3074C59.0445 12.496 59.0953 12.6978 59.1116 12.904C59.1121 12.9951 59.0938 13.0853 59.0579 13.1687C59.0219 13.2521 58.9692 13.3268 58.9031 13.3879C58.837 13.4491 58.7591 13.4952 58.6744 13.5235C58.5897 13.5517 58.5 13.5613 58.4114 13.5518M52.4941 9.71646H56.5445L54.5444 3.90386L52.4941 9.71646ZM68.2626 13.5518C68.746 13.5518 68.9627 13.2961 68.9627 12.6824V2.88111C68.9787 2.77196 68.9715 2.66058 68.9416 2.55453C68.9117 2.44848 68.8599 2.3503 68.7894 2.26665C68.719 2.18301 68.6318 2.11587 68.5337 2.06986C68.4356 2.02385 68.3289 2 68.2209 2C68.113 2 68.0064 2.02385 67.9083 2.06986C67.8102 2.11587 67.7229 2.18301 67.6525 2.26665C67.5821 2.3503 67.5301 2.44848 67.5002 2.55453C67.4703 2.66058 67.4631 2.77196 67.4792 2.88111V10.8244L62.0453 2.82997C61.6452 2.26746 61.4618 2.07995 61.0451 2.07995C60.6284 2.07995 60.345 2.38679 60.345 2.9493V12.7676C60.329 12.8768 60.3362 12.9882 60.3661 13.0942C60.396 13.2003 60.4479 13.2985 60.5183 13.3821C60.5887 13.4658 60.676 13.5329 60.7741 13.5789C60.8722 13.6249 60.9789 13.6487 61.0868 13.6487C61.1947 13.6487 61.3013 13.6249 61.3994 13.5789C61.4975 13.5329 61.5848 13.4658 61.6552 13.3821C61.7256 13.2985 61.7776 13.2003 61.8075 13.0942C61.8374 12.9882 61.8446 12.8768 61.8286 12.7676V4.85842L67.2626 12.8017C67.6293 13.3642 67.8459 13.5518 68.2626 13.5518ZM73.5466 13.5518C73.6472 13.5571 73.7477 13.5403 73.8413 13.5023C73.9349 13.4643 74.0195 13.4061 74.0891 13.3317C74.1588 13.2572 74.2119 13.1683 74.2448 13.0709C74.2778 12.9736 74.2897 12.8701 74.28 12.7676V3.63112H76.2469C76.349 3.64719 76.4534 3.64048 76.5527 3.61146C76.6521 3.58244 76.7442 3.53181 76.8226 3.463C76.9011 3.39419 76.964 3.3088 77.0072 3.21278C77.0503 3.11676 77.0727 3.01238 77.0727 2.9067C77.0727 2.80102 77.0503 2.69658 77.0072 2.60056C76.964 2.50455 76.9011 2.41921 76.8226 2.3504C76.7442 2.28159 76.6521 2.23091 76.5527 2.20189C76.4534 2.17286 76.349 2.16616 76.2469 2.18222H71.0463C70.9441 2.16616 70.8398 2.17286 70.7405 2.20189C70.6411 2.23091 70.5491 2.28159 70.4707 2.3504C70.3922 2.41921 70.3293 2.50455 70.2861 2.60056C70.2429 2.69658 70.2206 2.80102 70.2206 2.9067C70.2206 3.01238 70.2429 3.11676 70.2861 3.21278C70.3293 3.3088 70.3922 3.39419 70.4707 3.463C70.5491 3.53181 70.6411 3.58244 70.7405 3.61146C70.8398 3.64048 70.9441 3.64719 71.0463 3.63112H73.0465V12.8017C73.0365 12.9058 73.0489 13.0108 73.0828 13.1094C73.1167 13.2081 73.1713 13.2979 73.2428 13.3727C73.3143 13.4474 73.4009 13.5052 73.4966 13.542C73.5923 13.5789 73.6947 13.5938 73.7967 13.5858M82.131 13.5858C78.9473 13.5858 77.3137 10.7051 77.3137 7.85848C77.3137 5.01185 78.9806 2.11403 82.131 2.11403C85.2814 2.11403 87.0149 4.9948 87.0149 7.85848C87.0787 8.56594 87.0015 9.27925 86.7879 9.95529C86.5743 10.6313 86.2287 11.256 85.7721 11.7915C85.3155 12.3269 84.7573 12.762 84.1314 13.0705C83.5056 13.3789 82.825 13.5542 82.131 13.5858ZM82.131 3.44364C79.714 3.44364 78.7972 5.72777 78.7972 7.85848C78.7972 9.9892 79.6474 12.2563 82.131 12.2563C84.6146 12.2563 85.4647 9.97216 85.4647 7.85848C85.4647 5.74481 84.5979 3.44364 82.131 3.44364ZM96.6327 13.5858C97.0828 13.5858 97.2994 13.3301 97.2994 12.7165V2.91518C97.3118 2.81132 97.3017 2.70599 97.2699 2.60655C97.2381 2.5071 97.1855 2.41601 97.1156 2.33964C97.0457 2.26326 96.9602 2.20346 96.8652 2.16449C96.7703 2.12552 96.6681 2.10828 96.566 2.11403C96.4632 2.10866 96.3606 2.12601 96.265 2.16485C96.1693 2.20369 96.0829 2.26316 96.0117 2.33917C95.9406 2.41518 95.8863 2.50595 95.8525 2.60535C95.8187 2.70475 95.8062 2.81041 95.8159 2.91518V10.8585L90.3986 2.86404C90.0152 2.30153 89.8319 2.11403 89.3818 2.11403C88.9318 2.11403 88.7151 2.42087 88.7151 2.98338V12.8017C88.7051 12.9058 88.7174 13.0108 88.7513 13.1094C88.7852 13.2081 88.8399 13.2979 88.9114 13.3727C88.9829 13.4474 89.0694 13.5052 89.1651 13.542C89.2608 13.5789 89.3632 13.5938 89.4651 13.5858C89.5657 13.5912 89.6663 13.5743 89.76 13.5364C89.8536 13.4984 89.9381 13.4402 90.0077 13.3657C90.0773 13.2913 90.1304 13.2024 90.1634 13.1051C90.1963 13.0077 90.2083 12.9043 90.1986 12.8017V4.89249L95.6326 12.8358C95.9993 13.3983 96.1994 13.5858 96.6327 13.5858ZM100.25 13.5858C100.351 13.5943 100.453 13.5795 100.548 13.5425C100.643 13.5056 100.729 13.4475 100.799 13.3723C100.869 13.2972 100.922 13.207 100.954 13.1083C100.986 13.0096 100.996 12.9049 100.983 12.8017V2.91518C100.999 2.80838 100.992 2.69935 100.963 2.59552C100.934 2.49169 100.883 2.39555 100.814 2.31363C100.745 2.2317 100.66 2.16592 100.564 2.12084C100.468 2.07577 100.364 2.05244 100.258 2.05244C100.153 2.05244 100.048 2.07577 99.9521 2.12084C99.8561 2.16592 99.7708 2.2317 99.702 2.31363C99.6331 2.39555 99.5824 2.49169 99.5532 2.59552C99.5241 2.69935 99.5172 2.80838 99.5331 2.91518V12.8017C99.5207 12.9033 99.5303 13.0065 99.5612 13.1039C99.5922 13.2013 99.6435 13.2905 99.7119 13.3653C99.7803 13.4401 99.864 13.4987 99.9569 13.5368C100.05 13.5749 100.15 13.5916 100.25 13.5858ZM8.32211 43.8591C8.49133 43.8325 8.64566 43.7448 8.75714 43.6119C8.86862 43.479 8.92989 43.3097 8.92989 43.1346C8.92989 42.9595 8.86862 42.7903 8.75714 42.6574C8.64566 42.5245 8.49133 42.4368 8.32211 42.4102H5.50511V33.2566C5.50511 33.1559 5.48573 33.0561 5.44803 32.9631C5.41034 32.87 5.35511 32.7854 5.28545 32.7142C5.2158 32.643 5.1331 32.5865 5.0421 32.548C4.95109 32.5094 4.8536 32.4895 4.7551 32.4895C4.65659 32.4895 4.559 32.5094 4.46799 32.548C4.37699 32.5865 4.29429 32.643 4.22464 32.7142C4.15499 32.7854 4.09976 32.87 4.06206 32.9631C4.02437 33.0561 4.00499 33.1559 4.00499 33.2566V43.0238C3.99239 43.1337 4.00373 43.2451 4.03815 43.3499C4.07258 43.4548 4.12921 43.5505 4.20409 43.6303C4.27896 43.7102 4.37013 43.7721 4.47115 43.8116C4.57216 43.8512 4.68051 43.8674 4.78837 43.8591H8.32211ZM14.7896 43.8591C14.8917 43.8751 14.996 43.8684 15.0954 43.8394C15.1948 43.8104 15.2869 43.7597 15.3653 43.6909C15.4437 43.6221 15.5067 43.5368 15.5498 43.4407C15.593 43.3447 15.6154 43.2403 15.6154 43.1346C15.6154 43.0289 15.593 42.9245 15.5498 42.8285C15.5067 42.7325 15.4437 42.6471 15.3653 42.5783C15.2869 42.5095 15.1948 42.4589 15.0954 42.4298C14.996 42.4008 14.8917 42.3941 14.7896 42.4102H11.6392V38.9158H14.5396C14.7088 38.8892 14.863 38.8015 14.9745 38.6686C15.086 38.5357 15.1473 38.3664 15.1473 38.1913C15.1473 38.0163 15.086 37.847 14.9745 37.7141C14.863 37.5812 14.7088 37.4935 14.5396 37.4669H11.6392V33.9725H14.7896C14.8917 33.9886 14.996 33.9819 15.0954 33.9529C15.1948 33.9238 15.2869 33.8732 15.3653 33.8044C15.4437 33.7356 15.5067 33.6502 15.5498 33.5542C15.593 33.4582 15.6154 33.3538 15.6154 33.2481C15.6154 33.1424 15.593 33.038 15.5498 32.942C15.5067 32.8459 15.4437 32.7606 15.3653 32.6918C15.2869 32.623 15.1948 32.5724 15.0954 32.5433C14.996 32.5143 14.8917 32.5076 14.7896 32.5237H10.9224C10.8153 32.5184 10.7083 32.5366 10.6087 32.5771C10.509 32.6177 10.419 32.6797 10.3448 32.7589C10.2705 32.838 10.2137 32.9325 10.1782 33.036C10.1427 33.1395 10.1294 33.2497 10.139 33.3589V43.0238C10.1264 43.1337 10.1378 43.2451 10.1722 43.3499C10.2066 43.4548 10.2633 43.5505 10.3381 43.6303C10.413 43.7102 10.5043 43.7721 10.6053 43.8116C10.7063 43.8512 10.8146 43.8674 10.9224 43.8591H14.7896ZM21.7737 43.8591C21.8759 43.8751 21.9802 43.8684 22.0796 43.8394C22.1789 43.8104 22.271 43.7597 22.3495 43.6909C22.4279 43.6221 22.4909 43.5368 22.534 43.4407C22.5772 43.3447 22.5995 43.2403 22.5995 43.1346C22.5995 43.0289 22.5772 42.9245 22.534 42.8285C22.4909 42.7325 22.4279 42.6471 22.3495 42.5783C22.271 42.5095 22.1789 42.4589 22.0796 42.4298C21.9802 42.4008 21.8759 42.3941 21.7737 42.4102H18.5901V38.9158H21.4904C21.6596 38.8892 21.8139 38.8015 21.9254 38.6686C22.0369 38.5357 22.0982 38.3664 22.0982 38.1913C22.0982 38.0163 22.0369 37.847 21.9254 37.7141C21.8139 37.5812 21.6596 37.4935 21.4904 37.4669H18.5901V33.9725H21.7737C21.8759 33.9886 21.9802 33.9819 22.0796 33.9529C22.1789 33.9238 22.271 33.8732 22.3495 33.8044C22.4279 33.7356 22.4909 33.6502 22.534 33.5542C22.5772 33.4582 22.5995 33.3538 22.5995 33.2481C22.5995 33.1424 22.5772 33.038 22.534 32.942C22.4909 32.8459 22.4279 32.7606 22.3495 32.6918C22.271 32.623 22.1789 32.5724 22.0796 32.5433C21.9802 32.5143 21.8759 32.5076 21.7737 32.5237H17.8733C17.7662 32.5184 17.6591 32.5366 17.5595 32.5771C17.4598 32.6177 17.3698 32.6797 17.2956 32.7589C17.2213 32.838 17.1645 32.9325 17.129 33.036C17.0935 33.1395 17.0802 33.2497 17.0898 33.3589V43.0238C17.0772 43.1337 17.0886 43.2451 17.123 43.3499C17.1574 43.4548 17.2141 43.5505 17.2889 43.6303C17.3638 43.7102 17.4551 43.7721 17.5561 43.8116C17.6571 43.8512 17.7655 43.8674 17.8733 43.8591H21.7737ZM28.2579 43.8591C28.8516 43.925 29.4521 43.8513 30.0137 43.6435C30.5752 43.4357 31.0828 43.0994 31.4978 42.6603C31.9128 42.2211 32.2241 41.6907 32.4079 41.1097C32.5917 40.5287 32.6432 39.9123 32.5584 39.3078V33.1884C32.5745 33.0793 32.5673 32.9679 32.5373 32.8619C32.5074 32.7558 32.4555 32.6576 32.385 32.574C32.3146 32.4903 32.2274 32.4232 32.1293 32.3772C32.0312 32.3312 31.9246 32.3073 31.8166 32.3073C31.7087 32.3073 31.602 32.3312 31.5039 32.3772C31.4058 32.4232 31.3186 32.4903 31.2481 32.574C31.1777 32.6576 31.1258 32.7558 31.0959 32.8619C31.066 32.9679 31.0588 33.0793 31.0749 33.1884V39.8363C31.0202 40.5642 30.6987 41.2442 30.1749 41.7403C29.6511 42.2364 28.9635 42.512 28.2495 42.512C27.5356 42.512 26.848 42.2364 26.3241 41.7403C25.8003 41.2442 25.4789 40.5642 25.4242 39.8363V33.1884C25.4389 33.087 25.4317 32.9835 25.4029 32.8853C25.3742 32.787 25.3246 32.6965 25.2578 32.6201C25.191 32.5436 25.1085 32.4831 25.0163 32.4429C24.9241 32.4027 24.8243 32.3837 24.7241 32.3873C24.6206 32.3789 24.5166 32.3942 24.4196 32.432C24.3226 32.4698 24.2349 32.5292 24.1631 32.6059C24.0913 32.6825 24.0371 32.7746 24.0044 32.8754C23.9717 32.9761 23.9613 33.0831 23.974 33.1884V39.4272C23.8897 40.0301 23.941 40.6448 24.1239 41.2244C24.3068 41.804 24.6165 42.3334 25.0295 42.7722C25.4426 43.211 25.948 43.5477 26.5074 43.7567C27.0668 43.9657 27.6655 44.0416 28.2579 43.9784M43.2597 43.9784C43.3889 43.9877 43.5186 43.9707 43.6414 43.9286C43.7642 43.8864 43.8776 43.8199 43.9752 43.7328C44.0728 43.6457 44.1526 43.5397 44.21 43.421C44.2674 43.3022 44.3013 43.173 44.3098 43.0409L45.9767 33.9044C45.9901 33.6659 45.9901 33.4269 45.9767 33.1884C45.982 33.0945 45.9673 33.0005 45.9335 32.913C45.8998 32.8255 45.8478 32.7464 45.7811 32.6816C45.7145 32.6167 45.6349 32.5674 45.5477 32.5372C45.4606 32.507 45.3681 32.4965 45.2766 32.5066C45.1811 32.4973 45.0847 32.5076 44.9932 32.5371C44.9017 32.5665 44.8169 32.6145 44.7438 32.6781C44.6707 32.7417 44.611 32.8196 44.5679 32.9073C44.5248 32.9949 44.4994 33.0905 44.4931 33.1884L43.1263 41.967L40.626 33.1202C40.605 32.9408 40.5169 32.7767 40.3802 32.6623C40.2434 32.5479 40.0687 32.4921 39.8926 32.5066C39.7146 32.4918 39.5379 32.547 39.3984 32.6611C39.259 32.7752 39.1674 32.9394 39.1424 33.1202L36.6922 41.9329L35.2754 33.1884C35.2715 33.0897 35.2476 32.9928 35.2053 32.904C35.163 32.8151 35.1032 32.7362 35.0296 32.6722C34.956 32.6081 34.8702 32.5603 34.7777 32.5318C34.6852 32.5033 34.5879 32.4948 34.4919 32.5066C34.4025 32.4988 34.3124 32.5111 34.228 32.5427C34.1437 32.5742 34.0671 32.6241 34.0036 32.689C33.9401 32.754 33.8913 32.8323 33.8604 32.9186C33.8296 33.0049 33.8175 33.0969 33.8251 33.1884C33.8154 33.4301 33.8436 33.6718 33.9086 33.9044L35.5754 43.0409C35.5926 43.3047 35.7106 43.551 35.904 43.7264C36.0975 43.9019 36.3507 43.9924 36.6089 43.9784C37.1756 43.9784 37.509 43.842 37.7257 43.0409L39.9259 34.9783L42.1095 43.0409C42.3429 43.842 42.7096 43.9784 43.2263 43.9784M52.2608 43.9784C52.43 43.9518 52.5842 43.8641 52.6957 43.7312C52.8072 43.5983 52.8685 43.429 52.8685 43.2539C52.8685 43.0789 52.8072 42.9096 52.6957 42.7767C52.5842 42.6438 52.43 42.5561 52.2608 42.5295H49.0603V38.9158H51.9607C52.0628 38.9319 52.1672 38.9252 52.2666 38.8962C52.3659 38.8671 52.458 38.8165 52.5364 38.7476C52.6148 38.6788 52.6778 38.5935 52.7209 38.4975C52.7641 38.4015 52.7865 38.297 52.7865 38.1913C52.7865 38.0857 52.7641 37.9812 52.7209 37.8852C52.6778 37.7892 52.6148 37.7039 52.5364 37.6351C52.458 37.5662 52.3659 37.5156 52.2666 37.4866C52.1672 37.4576 52.0628 37.4509 51.9607 37.4669H49.0603V33.9725H52.2608C52.43 33.9459 52.5842 33.8583 52.6957 33.7254C52.8072 33.5925 52.8685 33.4232 52.8685 33.2481C52.8685 33.073 52.8072 32.9037 52.6957 32.7708C52.5842 32.6379 52.43 32.5503 52.2608 32.5237H48.3936C48.2845 32.5161 48.175 32.5325 48.0726 32.5718C47.9701 32.6111 47.8771 32.6724 47.7997 32.7515C47.7223 32.8306 47.6624 32.9258 47.624 33.0306C47.5856 33.1353 47.5694 33.2473 47.5768 33.3589V43.0238C47.5665 43.1361 47.5806 43.2494 47.618 43.3555C47.6554 43.4616 47.7153 43.558 47.7933 43.6377C47.8713 43.7175 47.9655 43.7787 48.0693 43.8169C48.1731 43.8552 48.2838 43.8696 48.3936 43.8591L52.2608 43.9784ZM62.4786 43.9784C62.962 43.9784 63.1954 43.7227 63.1954 43.1091V33.3078C63.2051 33.203 63.1926 33.0973 63.1588 32.9979C63.125 32.8985 63.0707 32.8077 62.9996 32.7317C62.9284 32.6557 62.842 32.5963 62.7463 32.5574C62.6507 32.5186 62.5481 32.5012 62.4453 32.5066C62.3432 32.5009 62.241 32.5181 62.1461 32.5571C62.0512 32.596 61.9656 32.6558 61.8957 32.7322C61.8258 32.8085 61.7732 32.8996 61.7414 32.9991C61.7096 33.0985 61.6995 33.2039 61.7119 33.3078V41.1318L56.3779 33.2055C55.9612 32.643 55.7779 32.4555 55.3778 32.4555C54.9778 32.4555 54.661 32.7623 54.661 33.3248V43.1431C54.661 43.2439 54.6804 43.3436 54.7181 43.4367C54.7558 43.5297 54.8111 43.6143 54.8807 43.6855C54.9504 43.7568 55.0331 43.8132 55.1241 43.8518C55.2151 43.8903 55.3126 43.9102 55.4111 43.9102C55.5096 43.9102 55.6072 43.8903 55.6982 43.8518C55.7892 43.8132 55.8719 43.7568 55.9415 43.6855C56.0112 43.6143 56.0664 43.5297 56.1041 43.4367C56.1418 43.3436 56.1612 43.2439 56.1612 43.1431V35.2339L61.5785 43.1773C61.9619 43.7398 62.1785 43.9273 62.5786 43.9273M73.3299 43.9273C73.7799 43.9273 74.08 43.6375 74.08 43.0579V33.3589C74.08 32.7964 73.7799 32.4555 73.3299 32.4555C72.8798 32.4555 72.5798 32.7964 72.5798 33.3589V37.5181H66.9791V33.3589C66.9791 32.7964 66.6791 32.4555 66.229 32.4555C65.779 32.4555 65.479 32.7964 65.479 33.3589V43.0579C65.479 43.6375 65.7456 43.9273 66.229 43.9273C66.7124 43.9273 66.9791 43.6375 66.9791 43.0579V38.8476H72.5798V43.0579C72.5798 43.6375 72.8465 43.9273 73.3299 43.9273ZM80.5474 43.9273C77.3471 43.9273 75.6802 41.0465 75.6802 38.1999C75.6802 35.3532 77.3471 32.4555 80.5474 32.4555C83.7478 32.4555 85.3814 35.3362 85.3814 38.1999C85.3814 41.0636 83.7145 43.9273 80.5474 43.9273ZM80.5474 33.785C78.1305 33.785 77.2137 36.0692 77.2137 38.1999C77.2137 40.3306 78.0638 42.5977 80.5474 42.5977C83.0311 42.5977 83.8812 40.3306 83.8812 38.1999C83.8812 36.0692 83.0311 33.785 80.5474 33.785ZM91.7654 43.8591C91.8676 43.8751 91.9719 43.8684 92.0712 43.8394C92.1706 43.8104 92.2627 43.7597 92.3411 43.6909C92.4196 43.6221 92.4825 43.5368 92.5257 43.4407C92.5689 43.3447 92.5912 43.2403 92.5912 43.1346C92.5912 43.0289 92.5689 42.9245 92.5257 42.8285C92.4825 42.7325 92.4196 42.6471 92.3411 42.5783C92.2627 42.5095 92.1706 42.4589 92.0712 42.4298C91.9719 42.4008 91.8676 42.3941 91.7654 42.4102H88.5817V38.9158H91.4821C91.5842 38.9319 91.6885 38.9252 91.7879 38.8962C91.8873 38.8671 91.9794 38.8165 92.0578 38.7476C92.1362 38.6788 92.1992 38.5935 92.2424 38.4975C92.2855 38.4015 92.3078 38.297 92.3078 38.1913C92.3078 38.0857 92.2855 37.9812 92.2424 37.8852C92.1992 37.7892 92.1362 37.7039 92.0578 37.6351C91.9794 37.5662 91.8873 37.5156 91.7879 37.4866C91.6885 37.4576 91.5842 37.4509 91.4821 37.4669H88.5817V33.9725H91.7654C91.8676 33.9886 91.9719 33.9819 92.0712 33.9529C92.1706 33.9238 92.2627 33.8732 92.3411 33.8044C92.4196 33.7356 92.4825 33.6502 92.5257 33.5542C92.5689 33.4582 92.5912 33.3538 92.5912 33.2481C92.5912 33.1424 92.5689 33.038 92.5257 32.942C92.4825 32.8459 92.4196 32.7606 92.3411 32.6918C92.2627 32.623 92.1706 32.5724 92.0712 32.5433C91.9719 32.5143 91.8676 32.5076 91.7654 32.5237H87.8983C87.7918 32.518 87.6854 32.5361 87.5864 32.5768C87.4875 32.6175 87.3984 32.6798 87.3254 32.7593C87.2524 32.8388 87.1972 32.9337 87.1637 33.0372C87.1303 33.1408 87.1193 33.2506 87.1316 33.3589V43.0238C87.1162 43.1327 87.125 43.2438 87.1573 43.3488C87.1897 43.4537 87.2447 43.5499 87.3184 43.6301C87.392 43.7104 87.4824 43.7726 87.5828 43.8122C87.6832 43.8518 87.791 43.8679 87.8983 43.8591H91.7654ZM101.25 43.8591C101.343 43.866 101.437 43.8537 101.526 43.823C101.614 43.7922 101.696 43.7437 101.766 43.6801C101.836 43.6166 101.892 43.5393 101.933 43.4529C101.973 43.3665 101.996 43.2728 102 43.1773C101.996 43.0613 101.967 42.9477 101.916 42.8445C101.864 42.7413 101.79 42.6512 101.7 42.5807L96.866 37.7908L101.283 33.7168C101.382 33.6348 101.46 33.5305 101.512 33.4122C101.564 33.2938 101.589 33.1647 101.583 33.035C101.583 32.947 101.566 32.8599 101.532 32.779C101.498 32.6981 101.449 32.6251 101.386 32.5645C101.324 32.5039 101.25 32.4569 101.169 32.4264C101.088 32.396 101.002 32.3826 100.916 32.3873C100.616 32.3873 100.4 32.6089 100.133 32.8475L95.5659 37.0919V33.1884C95.582 33.0793 95.5748 32.9679 95.5449 32.8619C95.515 32.7558 95.463 32.6576 95.3926 32.574C95.3221 32.4903 95.2349 32.4232 95.1368 32.3772C95.0387 32.3312 94.9321 32.3073 94.8242 32.3073C94.7162 32.3073 94.6095 32.3312 94.5114 32.3772C94.4133 32.4232 94.3262 32.4903 94.2557 32.574C94.1853 32.6576 94.1334 32.7558 94.1034 32.8619C94.0735 32.9679 94.0663 33.0793 94.0824 33.1884V43.075C94.0663 43.1841 94.0735 43.2955 94.1034 43.4016C94.1334 43.5076 94.1853 43.6058 94.2557 43.6894C94.3262 43.7731 94.4133 43.8402 94.5114 43.8862C94.6095 43.9322 94.7162 43.956 94.8242 43.956C94.9321 43.956 95.0387 43.9322 95.1368 43.8862C95.2349 43.8402 95.3221 43.7731 95.3926 43.6894C95.463 43.6058 95.515 43.5076 95.5449 43.4016C95.5748 43.2955 95.582 43.1841 95.5659 43.075V38.5408L100.567 43.6545C100.658 43.7484 100.767 43.8224 100.888 43.8722C101.008 43.922 101.137 43.9465 101.267 43.9443M78.1471 28.927C78.6639 28.927 78.8473 28.552 78.9973 28.1429L82.331 18.6314C82.3932 18.4622 82.427 18.2836 82.431 18.1029C82.4311 18.0149 82.4137 17.9278 82.3798 17.847C82.3459 17.7661 82.2962 17.693 82.2338 17.6324C82.1714 17.5718 82.0977 17.5248 82.0169 17.4944C81.9362 17.4639 81.8502 17.4506 81.7642 17.4552C81.2142 17.4552 81.0642 17.8643 80.8808 18.4098L78.1638 26.4213L75.4135 18.3245C75.2635 17.8643 75.1135 17.4552 74.5468 17.4552C74.4608 17.4506 74.3748 17.4639 74.2941 17.4944C74.2133 17.5248 74.1395 17.5718 74.0771 17.6324C74.0147 17.693 73.965 17.7661 73.9312 17.847C73.8973 17.9278 73.8799 18.0149 73.88 18.1029C73.8911 18.2843 73.9305 18.4627 73.9967 18.6314L77.3304 28.1429C77.4638 28.552 77.6638 28.927 78.1805 28.927M90.5987 28.927C90.4357 28.9256 90.2775 28.87 90.1482 28.7685C90.0189 28.667 89.9253 28.5252 89.8819 28.3645L89.1818 26.4213H84.1812L83.4811 28.3645C83.4464 28.5268 83.3575 28.6716 83.2298 28.7742C83.102 28.8768 82.9435 28.9308 82.7811 28.927C82.693 28.9364 82.604 28.9273 82.5195 28.9002C82.435 28.8732 82.3568 28.8287 82.2897 28.7697C82.2226 28.7106 82.1679 28.6382 82.1292 28.5568C82.0904 28.4754 82.0683 28.3868 82.0642 28.2963C82.0864 28.0857 82.1369 27.8791 82.2143 27.6826V27.5974L85.548 18.3245C85.7814 17.762 86.1148 17.4552 86.5982 17.4552C86.8366 17.4624 87.0656 17.5524 87.2474 17.7104C87.4291 17.8684 87.5529 18.085 87.5983 18.3245L91.0154 27.6826C91.1003 27.8766 91.151 28.0843 91.1654 28.2963C91.1636 28.386 91.1435 28.4743 91.1066 28.5556C91.0696 28.637 91.0166 28.7096 90.9508 28.7689C90.885 28.8282 90.8078 28.8729 90.7242 28.9001C90.6407 28.9273 90.5525 28.9365 90.4653 28.927M84.7146 25.0746H88.7651L86.7648 19.2621L84.7146 25.0746ZM100.483 28.9099C100.967 28.9099 101.183 28.6543 101.183 28.0406V18.2393C101.199 18.1302 101.192 18.0188 101.162 17.9127C101.132 17.8067 101.08 17.7085 101.01 17.6248C100.939 17.5412 100.852 17.474 100.754 17.428C100.656 17.382 100.549 17.3582 100.441 17.3582C100.334 17.3582 100.227 17.382 100.129 17.428C100.031 17.474 99.9435 17.5412 99.8731 17.6248C99.8027 17.7085 99.7507 17.8067 99.7208 17.9127C99.6909 18.0188 99.6837 18.1302 99.6997 18.2393V26.1827L94.2657 18.1882C93.8657 17.6257 93.6824 17.4382 93.2656 17.4382C92.8489 17.4382 92.5656 17.745 92.5656 18.3075V28.1258C92.5495 28.235 92.5566 28.3464 92.5865 28.4524C92.6164 28.5585 92.6684 28.6567 92.7388 28.7403C92.8093 28.824 92.8965 28.8911 92.9946 28.9371C93.0927 28.9831 93.1994 29.0069 93.3074 29.0069C93.4153 29.0069 93.5219 28.9831 93.62 28.9371C93.7181 28.8911 93.8053 28.824 93.8758 28.7403C93.9462 28.6567 93.9981 28.5585 94.0281 28.4524C94.058 28.3464 94.0651 28.235 94.049 28.1258V20.2166L99.483 28.194C99.8497 28.7225 100.066 28.9099 100.483 28.9099Z" fill="#F0E5E9"/>
</svg>
